# xmcd
# 
# Track frame offsets:
#     150
#     16679
#     29699
#     45108
#     62825
#     77008
#     92593
#     107428
#     119932
#     137155
#     152948
# 
# Disc length: 2315
# 
# Revision: 0
# Processed by: cddbd v1.5.2PL0 Copyright (c) Steve Scherf et al.
# Submitted via: fre:ac v1.0.17
# 
DISCID=8809090b
DTITLE=Steve Helms Band - Red Wine and Copenhagen
DYEAR=2011
DGENRE=Country
TTITLE0=Chasin' Amy
TTITLE1=Physical Attraction
TTITLE2=Wanted Woman
TTITLE3=Fire and Rain
TTITLE4=Red Wine and Copenhagen
TTITLE5=Conditions Are Right
TTITLE6=Talkin' 'Bout The Weather
TTITLE7=Hard Earned Money
TTITLE8=Texas Sounds Like Heaven
TTITLE9=When You're Gone
TTITLE10=Umbrella Song
EXTD=
EXTT0=
EXTT1=
EXTT2=
EXTT3=
EXTT4=
EXTT5=
EXTT6=
EXTT7=
EXTT8=
EXTT9=
EXTT10=
PLAYORDER=
